<?xml version="1.0" encoding="UTF-8" standalone="no"?>
<svg width="800" height="600" xmlns="http://www.w3.org/2000/svg">
  <style>
    .title { font: bold 24px sans-serif; fill: #8b5cf6; }
    .subtitle { font: bold 18px sans-serif; fill: #7c3aed; }
    .label { font: 14px sans-serif; fill: #f3f4f6; }
    .small-label { font: 12px sans-serif; fill: #d1d5db; }
    .box { fill: #1f2937; stroke: #8b5cf6; stroke-width: 2; rx: 10; ry: 10; }
    .component { fill: #374151; stroke: #a78bfa; stroke-width: 1.5; rx: 8; ry: 8; }
    .arrow { stroke: #8b5cf6; stroke-width: 2; fill: none; marker-end: url(#arrowhead); }
    .dashed { stroke-dasharray: 5,5; }
    .text-center { text-anchor: middle; }
    .text-right { text-anchor: end; }
  </style>
  
  <defs>
    <marker id="arrowhead" markerWidth="10" markerHeight="7" refX="9" refY="3.5" orient="auto">
      <polygon points="0 0, 10 3.5, 0 7" fill="#8b5cf6" />
    </marker>
  </defs>
  
  <rect width="800" height="600" fill="#111827" />
  
  <text x="400" y="40" class="title text-center">NeuraChain アーキテクチャ</text>
  <text x="400" y="70" class="subtitle text-center">AI、量子耐性、スケーラビリティを統合した次世代プラットフォーム</text>
  
  <!-- Main Architecture Box -->
  <rect x="50" y="100" width="700" height="450" class="box" />
  
  <!-- Core Components -->
  <rect x="100" y="130" width="600" height="100" class="component" />
  <text x="400" y="150" class="subtitle text-center">コアレイヤー</text>
  
  <rect x="120" y="170" width="120" height="40" fill="#1f2937" stroke="#a78bfa" rx="5" ry="5" />
  <text x="180" y="195" class="small-label text-center">Proof of AI (PoAI)</text>
  
  <rect x="260" y="170" width="120" height="40" fill="#1f2937" stroke="#a78bfa" rx="5" ry="5" />
  <text x="320" y="195" class="small-label text-center">量子耐性暗号システム</text>
  
  <rect x="400" y="170" width="120" height="40" fill="#1f2937" stroke="#a78bfa" rx="5" ry="5" />
  <text x="460" y="195" class="small-label text-center">AIによる動的シャーディング</text>
  
  <rect x="540" y="170" width="120" height="40" fill="#1f2937" stroke="#a78bfa" rx="5" ry="5" />
  <text x="600" y="195" class="small-label text-center">P2Pネットワーク</text>
  
  <!-- AI Integration Layer -->
  <rect x="100" y="250" width="280" height="120" class="component" />
  <text x="240" y="270" class="subtitle text-center">AI統合レイヤー</text>
  
  <rect x="120" y="290" width="120" height="30" fill="#1f2937" stroke="#a78bfa" rx="5" ry="5" />
  <text x="180" y="310" class="small-label text-center">分散型AI訓練</text>
  
  <rect x="120" y="330" width="120" height="30" fill="#1f2937" stroke="#a78bfa" rx="5" ry="5" />
  <text x="180" y="350" class="small-label text-center">モデル検証メカニズム</text>
  
  <rect x="250" y="290" width="120" height="30" fill="#1f2937" stroke="#a78bfa" rx="5" ry="5" />
  <text x="310" y="310" class="small-label text-center">予測型シャード生成</text>
  
  <rect x="250" y="330" width="120" height="30" fill="#1f2937" stroke="#a78bfa" rx="5" ry="5" />
  <text x="310" y="350" class="small-label text-center">異常検出</text>
  
  <!-- Quantum Resistance Layer -->
  <rect x="420" y="250" width="280" height="120" class="component" />
  <text x="560" y="270" class="subtitle text-center">量子耐性レイヤー</text>
  
  <rect x="440" y="290" width="120" height="30" fill="#1f2937" stroke="#a78bfa" rx="5" ry="5" />
  <text x="500" y="310" class="small-label text-center">格子ベースの暗号化</text>
  
  <rect x="440" y="330" width="120" height="30" fill="#1f2937" stroke="#a78bfa" rx="5" ry="5" />
  <text x="500" y="350" class="small-label text-center">ハッシュベースの署名スキーム</text>
  
  <rect x="570" y="290" width="120" height="30" fill="#1f2937" stroke="#a78bfa" rx="5" ry="5" />
  <text x="630" y="310" class="small-label text-center">量子乱数生成</text>
  
  <rect x="570" y="330" width="120" height="30" fill="#1f2937" stroke="#a78bfa" rx="5" ry="5" />
  <text x="630" y="350" class="small-label text-center">暗号アジリティ</text>
  
  <!-- Application Layer -->
  <rect x="100" y="390" width="600" height="120" class="component" />
  <text x="400" y="410" class="subtitle text-center">アプリケーションレイヤー</text>
  
  <rect x="120" y="430" width="120" height="60" fill="#1f2937" stroke="#a78bfa" rx="5" ry="5" />
  <text x="180" y="460" class="small-label text-center">自己最適化</text>
  <text x="180" y="475" class="small-label text-center">スマートコントラクト</text>
  
  <rect x="260" y="430" width="120" height="60" fill="#1f2937" stroke="#a78bfa" rx="5" ry="5" />
  <text x="320" y="460" class="small-label text-center">分散型AI市場</text>
  <text x="320" y="475" class="small-label text-center">プラットフォーム</text>
  
  <rect x="400" y="430" width="120" height="60" fill="#1f2937" stroke="#a78bfa" rx="5" ry="5" />
  <text x="460" y="460" class="small-label text-center">量子安全</text>
  <text x="460" y="475" class="small-label text-center">金融サービス</text>
  
  <rect x="540" y="430" width="120" height="60" fill="#1f2937" stroke="#a78bfa" rx="5" ry="5" />
  <text x="600" y="460" class="small-label text-center">自律型組織</text>
  <text x="600" y="475" class="small-label text-center">(DAO) 2.0</text>
  
  <!-- Connecting Arrows -->
  <path d="M400 230 L400 250" class="arrow" />
  <path d="M240 370 L240 390" class="arrow" />
  <path d="M560 370 L560 390" class="arrow" />
  
  <!-- PoAI Consensus -->
  <rect x="600" y="520" width="150" height="60" fill="#1f2937" stroke="#8b5cf6" rx="5" ry="5" />
  <text x="675" y="540" class="small-label text-center">Proof of AI (PoAI)</text>
  <text x="675" y="560" class="small-label text-center">AIモデル訓練と検証</text>
</svg>